<svg width="1200" height="800" viewBox="0 0 1200 800" xmlns="http://www.w3.org/2000/svg">
  <!-- Background -->
  <rect width="1200" height="800" fill="#ffffff"/>
  
  <!-- Header -->
  <rect width="1200" height="60" fill="#ffffff"/>
  <line x1="0" y1="60" x2="1200" y2="60" stroke="#e5e5e5" stroke-width="1"/>
  
  <!-- Logo and title -->
  <circle cx="40" cy="30" r="15" fill="#F59E0B"/>
  <text x="70" y="35" font-family="monospace" font-size="14" fill="#171717">Gomory - Optimiseur de découpe</text>
  
  <!-- Navigation -->
  <text x="500" y="35" font-family="system-ui" font-size="13" fill="#737373">Accueil</text>
  <text x="570" y="35" font-family="system-ui" font-size="13" fill="#171717" font-weight="bold">Optimiseur</text>
  <text x="660" y="35" font-family="system-ui" font-size="13" fill="#737373">Historique</text>
  <text x="750" y="35" font-family="system-ui" font-size="13" fill="#737373">Méthodologie</text>
  
  <!-- Language toggle -->
  <rect x="1100" y="20" width="40" height="25" rx="4" fill="#ffffff" stroke="#d4d4d4" stroke-width="1"/>
  <text x="1110" y="37" font-family="monospace" font-size="12" fill="#171717">FR</text>
  
  <!-- Main content area -->
  <g transform="translate(30, 90)">
    <!-- Left sidebar -->
    <rect width="320" height="200" rx="8" fill="#fafafa" stroke="#e5e5e5" stroke-width="1"/>
    <text x="15" y="25" font-family="system-ui" font-size="13" font-weight="bold" fill="#525252">Configuration de la planche</text>
    
    <!-- Input fields -->
    <rect x="15" y="40" width="140" height="32" rx="4" fill="#ffffff" stroke="#d4d4d4"/>
    <text x="20" y="59" font-family="system-ui" font-size="12" fill="#171717">2800 mm</text>
    <rect x="165" y="40" width="140" height="32" rx="4" fill="#ffffff" stroke="#d4d4d4"/>
    <text x="170" y="59" font-family="system-ui" font-size="12" fill="#171717">2070 mm</text>
    
    <!-- Pieces section -->
    <rect y="220" width="320" height="280" rx="8" fill="#fafafa" stroke="#e5e5e5" stroke-width="1"/>
    <text x="15" y="245" font-family="system-ui" font-size="13" font-weight="bold" fill="#525252">Pièces à découper</text>
    
    <!-- Piece items -->
    <rect x="15" y="260" width="290" height="60" rx="6" fill="#f5f5f5"/>
    <rect x="25" y="275" width="20" height="20" rx="2" fill="#FED7AA" stroke="#FB923C" stroke-width="2"/>
    <text x="55" y="288" font-family="monospace" font-size="11" fill="#171717">A</text>
    <text x="100" y="288" font-family="system-ui" font-size="11" fill="#737373">930 × 750 mm</text>
    <text x="220" y="288" font-family="system-ui" font-size="11" fill="#737373">Qté: 5</text>
    
    <rect x="15" y="330" width="290" height="60" rx="6" fill="#f5f5f5"/>
    <rect x="25" y="345" width="20" height="20" rx="2" fill="#DBEAFE" stroke="#60A5FA" stroke-width="2"/>
    <text x="55" y="358" font-family="monospace" font-size="11" fill="#171717">B</text>
    <text x="100" y="358" font-family="system-ui" font-size="11" fill="#737373">300 × 800 mm</text>
    <text x="220" y="358" font-family="system-ui" font-size="11" fill="#737373">Qté: 3</text>
    
    <!-- Optimize button -->
    <rect x="15" y="450" width="290" height="40" rx="6" fill="url(#gradient)" stroke="none"/>
    <text x="160" y="475" font-family="system-ui" font-size="14" font-weight="medium" fill="#ffffff" text-anchor="middle">🚀 Optimiser la découpe</text>
  </g>
  
  <!-- Main visualization area -->
  <g transform="translate(380, 90)">
    <!-- Board visualization -->
    <rect width="780" height="500" rx="12" fill="#ffffff" stroke="#e5e5e5" stroke-width="1"/>
    
    <!-- Title -->
    <text x="30" y="35" font-family="system-ui" font-size="14" font-weight="bold" fill="#171717">Planche 1</text>
    <text x="700" y="35" font-family="system-ui" font-size="12" fill="#10b981">Utilisation: 85%</text>
    
    <!-- Board diagram -->
    <g transform="translate(40, 60)">
      <rect width="700" height="400" fill="#fafaf9" stroke="#a8a29e" stroke-width="2" stroke-dasharray="5,5"/>
      
      <!-- Column 1 -->
      <rect x="10" y="10" width="330" height="180" fill="#FED7AA" stroke="#FB923C" stroke-width="2"/>
      <text x="175" y="100" font-family="monospace" font-size="24" fill="#92400E" text-anchor="middle">A1</text>
      
      <rect x="10" y="200" width="330" height="180" fill="#FED7AA" stroke="#FB923C" stroke-width="2"/>
      <text x="175" y="290" font-family="monospace" font-size="24" fill="#92400E" text-anchor="middle">A2</text>
      
      <!-- Column 2 -->
      <rect x="350" y="10" width="340" height="150" fill="#DBEAFE" stroke="#60A5FA" stroke-width="2"/>
      <text x="520" y="85" font-family="monospace" font-size="24" fill="#1E40AF" text-anchor="middle">B1</text>
      
      <rect x="350" y="170" width="340" height="150" fill="#DBEAFE" stroke="#60A5FA" stroke-width="2"/>
      <text x="520" y="245" font-family="monospace" font-size="24" fill="#1E40AF" text-anchor="middle">B2</text>
      
      <rect x="350" y="330" width="200" height="60" fill="#D4D4D8" stroke="#71717A" stroke-width="2"/>
      <text x="450" y="365" font-family="monospace" font-size="18" fill="#3F3F46" text-anchor="middle">C1</text>
      
      <!-- Cut lines -->
      <line x1="345" y1="0" x2="345" y2="400" stroke="#EF4444" stroke-width="3" stroke-dasharray="8,4" opacity="0.7"/>
      <line x1="0" y1="195" x2="345" y2="195" stroke="#EF4444" stroke-width="3" stroke-dasharray="8,4" opacity="0.7"/>
      <line x1="345" y1="165" x2="700" y2="165" stroke="#EF4444" stroke-width="3" stroke-dasharray="8,4" opacity="0.7"/>
      <line x1="345" y1="325" x2="700" y2="325" stroke="#EF4444" stroke-width="3" stroke-dasharray="8,4" opacity="0.7"/>
    </g>
    
    <!-- Stats -->
    <rect x="30" y="480" width="700" height="50" rx="8" fill="#f0fdf4"/>
    <text x="50" y="510" font-family="system-ui" font-size="13" fill="#166534">
      ✓ 18 pièces placées • 7 coupes • 85% d'utilisation • 0.42 m² de chutes
    </text>
  </g>
  
  <!-- Gradient definition -->
  <defs>
    <linearGradient id="gradient" x1="0%" y1="0%" x2="100%" y2="0%">
      <stop offset="0%" style="stop-color:#F59E0B;stop-opacity:1" />
      <stop offset="100%" style="stop-color:#EA580C;stop-opacity:1" />
    </linearGradient>
  </defs>
</svg>